# xmcd
#
# Track frame offsets: 
#        150
#        115299
#        177090
#        219533
#        274213
#        302134
#
# Disc length: 4267 seconds
#
# Revision: 1
# Processed by: cddbd v1.5.2PL0 Copyright (c) Steve Scherf et al.
# Submitted via: ExactAudioCopy v0.99pb4
#
DISCID=5410a906
DTITLE=Ware, David S. - Live In The World [CD2]
DYEAR=2005
DGENRE=Jazz
TTITLE0=Elder's Path
TTITLE1=Unknown Mansion
TTITLE2=Sentient Compassion
TTITLE3=Co Co Cana
TTITLE4=Manu's Ideal
TTITLE5=Lexicon
EXTD=YEAR: 2005
EXTT0=
EXTT1=
EXTT2=
EXTT3=
EXTT4=
EXTT5=
PLAYORDER=
